<?xml version="1.0" encoding="utf-8"?>
<!-- Generator: Adobe Illustrator 24.0.1, SVG Export Plug-In . SVG Version: 6.00 Build 0)  -->
<svg version="1.1" id="Camada_1" xmlns="http://www.w3.org/2000/svg" xmlns:xlink="http://www.w3.org/1999/xlink" x="0px" y="0px"
	 viewBox="0 0 1080 1080" style="enable-background:new 0 0 1080 1080;" xml:space="preserve">
<style type="text/css">
	.st0{fill:url(#SVGID_1_);}
	.st1{fill:url(#SVGID_2_);}
	.st2{fill:url(#SVGID_3_);}
	.st3{fill:url(#SVGID_4_);}
	.st4{fill:url(#SVGID_5_);}
</style>
<g id="Logo">
	<g>
		
			<linearGradient id="SVGID_1_" gradientUnits="userSpaceOnUse" x1="278.6615" y1="151.6026" x2="495.9259" y2="300.8082" gradientTransform="matrix(1 0 0 -1 0 1080)">
			<stop  offset="0" style="stop-color:#FFBB47"/>
			<stop  offset="1" style="stop-color:#FB8E52"/>
		</linearGradient>
		<path class="st0" d="M533.9,891v1c-0.4,2.8-0.2,5.6-0.5,8.4c-0.9,10-7.5,20-19.3,21.9c-1.6,0.2-3.1,0.3-4.7,0.3
			c-0.4,0-1-0.2-1.2,0.3s0.2,0.8,0.5,1.2c2.5,3.3,4.7,6.8,6.8,10.3c5.3,9.4,9,19.3,11.1,29.9c1.2,6.1,1.9,12.2,2.2,18.5
			c0.2,4.1,0.1,8.1,0.3,12.2c0.4,7.8,0.8,15.6,0.6,23.4c-0.2,8.1-0.8,16.3-3.6,24c-1.5,4-3.5,7.7-7,10.4c-2.2,1.8-4.7,2.2-7.4,2.2
			h-2.2c-6.3,0.1-12.2-1.8-18-4.1c-3.5-1.4-6.9-3-10.2-4.6l-121.9-69.7c-7.3-4.2-14.6-8.4-21.8-12.6c-7.3-4.2-14.5-8.5-21.5-13.2
			c-9.7-6.5-19-13.7-27-22.3c-5-5.4-8.9-11.6-12-18.3c-3.9-8.3-6.5-17.1-8.1-26.2c-0.9-5.2-1.6-10.5-2-15.8
			c-0.4-6.1-0.5-12.2-0.7-18.3c-0.2-3.9-0.2-7.8-0.2-11.7c0-1.2-0.4-2.4-0.3-3.7c0.1-2.4,0.8-3,3-2.2c4.1,1.5,8.3,3,12.4,4.6
			c10.3,3.9,20.5,7.7,30.8,11.5c6.6,2.5,13.2,5,19.8,7.4c1.5,0.5,2.3,1.5,2.2,3.2c-0.2,5.8,0.2,11.6,0.5,17.4
			c0.2,5-0.1,9.9,0.5,14.9c0.2,1.4,0.7,2.2,1.8,2.8c4.4,2.5,8.8,5.1,13.2,7.6c8.5,4.9,17,9.8,25.5,14.7c9.3,5.3,18.5,10.7,27.7,16
			c9.7,5.6,19.5,11.2,29.2,16.9c4.8,2.8,9.7,5.6,14.5,8.4c1.7,1,3.5,1.8,5.4,2.3c2.8,0.8,3.7,0.3,4.4-2.5c0.5-2.4,0.9-4.9,0.5-7.4
			c-0.3-2.3-0.1-4.6-0.3-6.9c-0.2-3.5-0.3-7-0.6-10.5c-0.5-5.5-3.4-9.7-7.5-13.2c-4.8-4-10.4-6.6-15.7-9.7
			c-8.4-4.9-16.9-9.8-25.4-14.7c-9.4-5.4-18.7-10.8-28-16.2c-5.9-3.4-11.7-6.8-17.6-10.2c-1.2-0.7-1.8-1.7-1.8-3.2
			c-0.1-4.7-0.3-9.4-0.4-14.1c-0.3-8.2-0.4-16.4-0.7-24.5c-0.1-3.9,0.1-7.8-0.3-11.7c-0.4-4.2-0.2-8.4-0.3-12.5
			c-0.1-2.2,0.7-2.7,2.7-1.6c4.4,2.3,8.6,4.9,12.9,7.4c10.7,6.1,21.3,12.3,32,18.5c10.6,6.1,21.1,12.2,31.7,18.3
			c4.6,2.7,9.3,5.4,14,8c2,1.1,4.1,2.2,6.5,2.3c2.5,0.1,3.8-0.7,4.6-3.1c0.3-0.8,0.5-1.6,0.5-2.5c0.3-7.3-0.3-14.7-0.4-22
			c-0.1-6.3-2.1-11.9-6.5-16.6c-2.3-2.4-5-4.4-7.9-6.1c-12.1-7.1-24.3-14.1-36.5-21.1c-13-7.5-25.9-15-38.9-22.4
			c-10.5-6.1-21-12.1-31.5-18.2c-3.8-2.2-7.6-4.4-11.4-6.6c-1.4-0.8-1.8-0.6-1.6,1c0.5,5.2,0.3,10.5,0.5,15.7
			c0.2,6.8,0.6,13.7,0.5,20.5c0,0.7,0,1.6-0.8,1.9c-0.8,0.3-1.4-0.2-2-0.7c-6.5-5.2-12.9-10.4-19.4-15.6c-6.6-5.3-13.3-10.7-19.9-16
			c-8-6.5-16-12.9-24-19.4c-0.1-0.1-0.2-0.2-0.3-0.2c-5.6-4.3-4.1-2.8-4.3-9.4c-0.3-7-0.2-14-0.3-21c-0.1-5.4-0.2-10.8-0.1-16.3
			c0.1-7.4,0.3-14.8,3.1-21.8c1.3-3.2,2.9-6.2,5.4-8.7c2.4-2.4,5.1-3.6,8.5-3.5h3.6c6.3-0.1,12,1.9,17.6,4.3
			c12.2,5.1,23.5,11.8,34.9,18.4c8.4,4.9,16.9,9.8,25.4,14.6c16.4,9.4,32.8,18.9,49.1,28.4c13.4,7.8,26.9,15.5,40.3,23.3
			c9.2,5.4,18.6,10.5,27.6,16.2c7.6,4.8,15,9.9,21.9,15.7c3.8,3.2,7.6,6.4,11,10c8.4,8.8,14.8,18.9,19.1,30.3
			c3.7,10,6,20.3,7.2,30.9c0.4,3.8,0.5,7.7,0.6,11.5s0.2,7.6,0.2,11.4v30.4C533.8,889.5,533.5,890.3,533.9,891z"/>
		
			<linearGradient id="SVGID_2_" gradientUnits="userSpaceOnUse" x1="586.4489" y1="97.2495" x2="784.062" y2="427.2636" gradientTransform="matrix(1 0 0 -1 0 1080)">
			<stop  offset="0" style="stop-color:#F45D5C"/>
			<stop  offset="0.3527" style="stop-color:#F66B59"/>
			<stop  offset="1" style="stop-color:#FB8E52"/>
		</linearGradient>
		<path class="st1" d="M828.2,771.3c0-0.4,0.2-0.9,0.5-1.3c-0.1,0-0.2-0.1-0.2-0.2c-0.4-1.2-0.6-2.4,0.2-3.5c-0.1,0-0.2-0.1-0.2-0.2
			c-0.5-2.8-0.5-5.7,0-8.5c0.1-0.1,0.1-0.2,0.2-0.2c-0.8-1.1-0.8-2.2,0-3.3c-0.1,0-0.1-0.1-0.2-0.1c-0.6-2.1-0.5-4.3-0.6-6.4
			c-0.5-8.5-1.4-16.9-3.1-25.2c-1.8-9.2-4.6-18-9-26.4c-5.6-10.7-13.6-19.1-24.9-24c-4.8-2.1-9.8-3.3-15-3.8
			c-1.6-0.2-3.3-0.2-4.8-0.6c-0.1-0.1-0.1-0.1-0.1-0.2c-1.3,0.8-2.7,0.8-4,0c0,0,0,0.1-0.1,0.1c-2.5,0.6-5.1,0.6-7.7,0.9
			c-11,1.4-21.5,4.8-31.7,9c-12.1,5-23.4,11.4-34.7,18c-20.9,12.2-41.8,24.4-62.6,36.6c-23.6,13.8-47.2,27.6-70.8,41.3
			c-1.5,0.9-2.9,1.9-4.6,2.4c0.3,0.5,0.4,1,0.4,1.6c0,0.8,0,1.7,0,2.5c0,97.1,0,194.2,0,291.3l156-89.1c7-4.6,13.8-9.5,20.4-14.6
			c14.9-11.6,28.8-24.1,40.5-38.9c17.2-21.9,30.6-46,40.3-72c10.1-27,15.4-55.1,16.3-83.9C828.4,772.2,828.2,771.7,828.2,771.3z
			 M755.1,845c-6,19.2-16.4,35.6-30.7,49.6c-12.7,12.4-27.1,22.6-42.2,31.6c-20.1,12-40.4,23.7-60.7,35.6c-0.2,0.1-0.5,0.2-1,0.5
			v-2.1c0-49.9,0-99.7,0-149.6c0-1.4,0.4-2.2,1.7-2.9c26.6-15.5,53.2-31,79.8-46.5c7.6-4.4,15.6-8.1,24.4-9.8
			c7.8-1.4,15.2-1.1,21.7,4.2c4.9,4,7.6,9.5,9.5,15.3c2.3,7.2,3.3,14.7,3.6,22.2C761.9,810.7,760.4,828.1,755.1,845z"/>
		
			<linearGradient id="SVGID_3_" gradientUnits="userSpaceOnUse" x1="296.318" y1="658.6621" x2="744.6639" y2="952.3155" gradientTransform="matrix(1 0 0 -1 0 1080)">
			<stop  offset="0" style="stop-color:#2F7EA1"/>
			<stop  offset="0.1418" style="stop-color:#3189AA"/>
			<stop  offset="1" style="stop-color:#3FCCE0"/>
		</linearGradient>
		<path class="st2" d="M598.5,187c-2,3.1-4.8,5.4-7.7,7.3c-7.2,4.7-14.6,8.9-22,13.3c-9.6,5.7-19.2,11.4-28.8,17.2
			c-23.3,13.9-46.7,27.8-70,41.7c-26.3,15.6-52.5,31.3-78.7,46.9c-1,0.6-1.6,0.4-2.4-0.1c-24.8-15.1-49.5-30.1-74.3-45.2
			c-0.6-0.4-1.3-0.8-1.9-1.2c-1.4-0.8-1.3-2.8,0-3.6c5.8-3.4,11.4-6.8,16.9-10.1c55-32.8,110-65.6,165-98.3
			c6.5-3.9,12.8-8.1,19.7-11.1c5.5-2.4,11.1-3.9,17.1-3.8c3,0,5.8,0.5,8.6,1.3c2.1,0.7,4.2,1.6,6.1,2.8c15.5,9.4,31,18.8,46.5,28.3
			c1.8,1.1,3.5,2.4,5,4.1C600.6,179.7,600.9,183.2,598.5,187z M788.6,172.9c-0.5-9.2-4.4-18.2-11.2-26.3
			c-13.1-15.6-30.8-25.7-48.4-35.4c-18.7-10.3-37-21.7-55.4-32.6c-15.4-9-30.7-18.1-46.1-27.2c-7.3-4.3-14.9-8.9-22.3-12.7
			c-7.4-3.8-15.4-6.1-23.5-8.1c-0.5-0.1-1-0.2-1.5-0.4c-11.3-2.7-22.8-4.3-34.4-4.4c-2,0-3.9,0-5.9,0.1c-0.8,0-1.6,0.1-2.3,0.1
			c-1.4,0.1-2.7,0.2-4.1,0.4c-11.5,1.1-22.8,2.8-34,5.9c-1.6,0.4-3.2,0.9-4.8,1.4c-14,4.2-27.4,10-40.3,16.7l0,0l-88.5,52.1
			C350.6,111.6,74.3,274,74.3,274s465,272.6,465.7,272.2l118-69c0,0-12.4-7.4-18.8-11.3c-9.6-5.9-19.3-11.7-28.9-17.6
			c-23.4-14.2-46.8-28.4-70.2-42.6c0,0-0.1,0-0.1-0.1c-13.7-8.3-27.4-16.7-41.1-25c-2.5-1.5-2.5-1.8,0-3.3
			c12.9-7.7,25.8-15.4,38.7-23c0.8-0.5,1.6-1,2.5-1.5c11.7-7,23.4-13.9,35-20.9c13.7-8.1,27.3-16.3,41-24.4
			c12.6-7.5,25.1-14.9,37.7-22.4c13-7.8,26.1-15.5,39.1-23.3c12.5-7.5,25-14.9,37.5-22.4c9.7-5.7,19.1-11.8,28-18.7
			c8.1-6.3,15.7-13.3,21.8-21.7C786.4,190.6,789.1,181.7,788.6,172.9z"/>
		
			<linearGradient id="SVGID_4_" gradientUnits="userSpaceOnUse" x1="74.3" y1="491.2" x2="543.2364" y2="491.2" gradientTransform="matrix(1 0 0 -1 0 1080)">
			<stop  offset="0" style="stop-color:#FFBB47"/>
			<stop  offset="1" style="stop-color:#FB8E52"/>
		</linearGradient>
		<path class="st3" d="M74.3,273.9v539.7l157.5,90.1c0.2-28.9,0.7-297.7,0.7-335.8c0-0.6,0-1.2,0-1.9c0.1-1.6,0.7-2,2.2-1.4
			c0.4,0.1,0.7,0.3,1.1,0.5c5.2,3,301.4,175.2,304,176.8c0.1,0,0.2,0.1,0.2,0.1V546.1C532,541.4,74.3,273.9,74.3,273.9z"/>
		
			<linearGradient id="SVGID_5_" gradientUnits="userSpaceOnUse" x1="753.556" y1="363.9201" x2="989.1445" y2="806.3029" gradientTransform="matrix(1 0 0 -1 0 1080)">
			<stop  offset="0" style="stop-color:#F45D5C"/>
			<stop  offset="0.3527" style="stop-color:#F66B59"/>
			<stop  offset="1" style="stop-color:#FB8E52"/>
		</linearGradient>
		<path class="st4" d="M1005.7,273.9v539.7l-157.5,90.1c-0.2-28.9-0.7-297.7-0.7-335.8c0-0.6,0-1.2,0-1.9c-0.1-1.6-0.7-2-2.2-1.4
			c-0.4,0.1-0.7,0.3-1.1,0.5c-5.2,3-301.4,175.2-304,176.8c-0.1,0-0.2,0.1-0.2,0.1V546.1C548,541.4,1005.7,273.9,1005.7,273.9z"/>
	</g>
</g>
</svg>
